<?xml version="1.0" encoding="utf-8"?>
<!-- Generator: Adobe Illustrator 24.0.1, SVG Export Plug-In . SVG Version: 6.00 Build 0)  -->
<svg version="1.1" xmlns="http://www.w3.org/2000/svg" xmlns:xlink="http://www.w3.org/1999/xlink" x="0px" y="0px"
	 viewBox="0 0 79 79" style="enable-background:new 0 0 79 79;" xml:space="preserve">
<style type="text/css">
	.st0{display:none;}
	.st1{display:inline;}
	.st2{fill:none;}
	.st3{fill:#EFD620;}
</style>
<g id="Layer_1" class="st0">
	<g id="Layer_3" class="st1">
		<rect class="st2" width="79" height="79"/>
	</g>
	<g id="Layer_1_1_" class="st1">
		<g>
			<path class="st3" d="M75,4v71H4V4H75 M79,0H0v79h79V0L79,0z"/>
		</g>
	</g>
	<g id="Layer_2_1_" class="st1">
		<g>
			<path class="st3" d="M28.3,51.7L5.8,41.2v-2.4l22.5-12v3.7L10,39.7l18.3,8.2V51.7z"/>
			<path class="st3" d="M47.8,21.2L35.1,57.8h-3.9l12.7-36.5L47.8,21.2L47.8,21.2z"/>
			<path class="st3" d="M50.7,47.9L69,39.8l-18.3-9.3v-3.7l22.5,12v2.4L50.7,51.7V47.9z"/>
		</g>
	</g>
</g>
<g id="Layer_2">
	<g>
		<path d="M5.9,39.5l19.9,8.2L24.3,52L0.1,41.7v-4.5L24.3,27l1.5,4.3L5.9,39.5z"/>
		<path d="M32.7,66.6h-5.3l19-54.2h5.2L32.7,66.6z"/>
		<path d="M53.2,31.3l1.5-4.3l24.2,10.2v4.5L54.7,52l-1.5-4.3l19.9-8.2L53.2,31.3z"/>
	</g>
</g>
</svg>
